<?xml version="1.0" encoding="utf-8"?>
<!-- Generator: Adobe Illustrator 26.3.0, SVG Export Plug-In . SVG Version: 6.00 Build 0)  -->
<svg version="1.1" id="Noots1_copy" xmlns="http://www.w3.org/2000/svg" xmlns:xlink="http://www.w3.org/1999/xlink" x="0px"
	 y="0px" viewBox="0 0 576 576" style="enable-background:new 0 0 576 576;" xml:space="preserve">
<style type="text/css">
	.st0{fill:#FF00C9;}
	.st1{opacity:0.35;fill:#FFFFFF;}
	.st2{opacity:0.15;fill:#FFFFFF;}
	.st3{fill:#F467D9;}
	.st4{fill:#652D90;}
	.st5{fill:#FFFFFF;}
	.st6{opacity:0.3;}
	.st7{fill:#ED2EA5;}
	.st8{opacity:0.3;fill:#FFFFFF;}
</style>
<g>
	<path class="st0" d="M288,71.96C168.68,71.96,71.96,168.68,71.96,288S168.68,504.04,288,504.04S504.04,407.32,504.04,288
		S407.32,71.96,288,71.96z M288,493.54c-113.51,0-205.54-92.02-205.54-205.54S174.49,82.46,288,82.46S493.54,174.49,493.54,288
		S401.51,493.54,288,493.54z"/>
	<circle id="BG" class="st1" cx="288" cy="288" r="205.54"/>
	<path id="BG1" class="st2" d="M288,88.05C177.57,88.05,88.05,177.57,88.05,288c0,0.21,0.01,0.42,0.01,0.63
		C88.4,398.77,177.78,487.95,288,487.95s199.6-89.18,199.94-199.31c0-0.21,0.01-0.42,0.01-0.63
		C487.95,177.57,398.43,88.05,288,88.05z"/>
	<path class="st3" d="M487.95,288c0-1.11-0.02-2.22-0.04-3.33c-46.61-13.09-118.83-21.5-199.9-21.5s-153.29,8.4-199.9,21.5
		c-0.02,1.11-0.04,2.22-0.04,3.33c0,0.21,0.01,0.42,0.01,0.63c0.01,3.71,0.14,7.4,0.35,11.07c0,0,0,0,0,0
		c0.01,0.13,0.02,0.26,0.03,0.39c0.08,1.37,0.18,2.74,0.29,4.11c0.02,0.25,0.04,0.51,0.06,0.76c0.11,1.36,0.24,2.71,0.38,4.05
		c0.03,0.25,0.05,0.5,0.08,0.74c0.15,1.38,0.31,2.75,0.49,4.12c0.03,0.21,0.05,0.41,0.08,0.62c0.19,1.46,0.4,2.92,0.63,4.37
		c0.02,0.11,0.03,0.21,0.05,0.32c0.74,4.75,1.65,9.44,2.73,14.08c0.02,0.07,0.04,0.14,0.05,0.22c0.33,1.41,0.67,2.82,1.03,4.22
		c0.09,0.36,0.19,0.71,0.28,1.06c0.29,1.12,0.59,2.23,0.9,3.34c0.13,0.47,0.27,0.94,0.41,1.41c0.29,0.99,0.58,1.98,0.88,2.96
		c0.16,0.53,0.33,1.05,0.49,1.58c0.29,0.92,0.58,1.84,0.89,2.76c0.18,0.55,0.37,1.11,0.56,1.66c0.3,0.89,0.61,1.77,0.92,2.65
		c0.2,0.56,0.4,1.12,0.6,1.68c0.12,0.33,0.24,0.67,0.36,1.01c0.01,0,0.01,0,0.02,0C128.92,433.8,202.13,487.95,288,487.95
		s159.08-54.15,187.4-130.15c0.01,0,0.01,0,0.02,0c0.12-0.33,0.24-0.67,0.36-1.01c0.2-0.56,0.4-1.12,0.6-1.68
		c0.31-0.88,0.62-1.76,0.92-2.65c0.19-0.55,0.37-1.1,0.56-1.66c0.3-0.92,0.6-1.84,0.89-2.76c0.16-0.52,0.33-1.05,0.49-1.58
		c0.3-0.98,0.59-1.97,0.88-2.96c0.14-0.47,0.27-0.94,0.41-1.41c0.31-1.11,0.61-2.22,0.9-3.34c0.09-0.36,0.19-0.71,0.28-1.06
		c0.36-1.4,0.7-2.81,1.03-4.22c0.02-0.07,0.04-0.14,0.05-0.22c1.07-4.63,1.98-9.33,2.73-14.08c0.02-0.11,0.03-0.21,0.05-0.32
		c0.22-1.45,0.43-2.91,0.63-4.37c0.03-0.21,0.05-0.41,0.08-0.62c0.18-1.37,0.34-2.74,0.49-4.12c0.03-0.25,0.05-0.5,0.08-0.74
		c0.14-1.35,0.27-2.7,0.38-4.05c0.02-0.25,0.04-0.51,0.06-0.76c0.11-1.36,0.21-2.73,0.29-4.11c0.01-0.13,0.02-0.26,0.03-0.39
		c0,0,0,0,0,0c0.21-3.66,0.34-7.35,0.35-11.07C487.94,288.42,487.95,288.21,487.95,288z"/>
	<g id="ghost_face_00000052092646336128557370000012313264808070252424_">
		<path class="st4" d="M278.17,440.76c9.82,1.55,54.83-1.29,95.04-28.13s37.35-52.49,37.35-52.49s-13.35,17.57-31.63,21.48
			c13.19-10.74,38.94-33.49,38.3-69.38s-26.7-63.94-26.7-63.94s9.17,13.85-18.64,42.66c4.77-9.6,11.01-19.79,6.72-49.99
			c-4.29-30.2-21.14-59.52-37.03-72.92c3.81,7.71,6.2,16.55,3.81,27.04c-2.07-8.97-12.4-27.93-25.75-44.23s-19.07-21.36-16.53-28.43
			c2.54-7.08,10.01-15.54,10.01-15.54s-33.06,13.14-55.63,42.71c-22.57,29.57-26.7,45.62-26.7,45.62s-3.5-10.99,3.81-27.17
			c-9.06,6.07-28.17,30.21-35.94,55.52c-6.62,21.57-11.1,39.45,7.18,66.12c-6.04-6.32-19.87-12.7-20.35-40.88
			c-11.12,12.13-31.15,45.37-25.91,76.33c5.24,30.96,38.46,56.61,38.46,56.61s-22.09-4.55-32.42-21.1
			C170.42,377.57,184.25,425.97,278.17,440.76z"/>
		<g>
			<g>
				<polygon class="st5" points="343.43,283.08 329.39,302.02 309.44,289.02 300.46,308.57 316.83,317.36 304.09,334.48 
					320.02,345.35 332.44,327.37 346.37,337.47 355.76,320.24 344.6,309.99 356.85,294.08 				"/>
				<polygon class="st5" points="270.76,290.53 277.27,307.77 264.15,317.87 275.65,334.55 261.27,347.06 248.98,331.3 
					235.23,345.24 222,327.48 236.14,315.57 220.28,295.6 236.1,283.9 251.37,303.31 				"/>
				<path class="st5" d="M304.44,351.18l-27.1-0.88c0,0,9.39,18.85,14.56,19.16C297.08,369.76,304.44,351.18,304.44,351.18z"/>
			</g>
			<path class="st5" d="M319.25,410.94c17.33-17.37,20.24-40.17,20.24-40.17c-4.63-1.89-6.34-1.53-10.47,0.25
				c-2.45,9.14-5.69,19.64-7.36,18.16c-1.66-1.47-5.36-7.6-8.22-12.57c-21.17,6-37.84,4.05-50.03-0.21
				c-4.64,4.43-8.2,10.32-11.24,10.09c-2.1-0.16-4.48-8.41-5.63-14.9c-5.31-3.84-8.9-1.31-8.9-1.31s3.36,22.46,16.87,41.06
				c3.99-3.13,6.25-8.24,8.55-10.72c1.22,0.9,2.99,11.02,4.69,20.07c3.58,1.37,7.58,2.29,12.1,2.57c9.7,0.61,11.76-0.32,18.7-3.06
				c1.97-7.45,6.3-18.32,6.87-19.5C305.97,399.51,314.86,406.96,319.25,410.94z"/>
		</g>
	</g>
	<g class="st6">
		<path class="st3" d="M288,357.46c-80.9,0-152.97-22.57-199.59-57.76C94.46,404.68,181.5,487.95,288,487.95
			s193.54-83.27,199.59-188.25C440.97,334.88,368.9,357.46,288,357.46z"/>
		<path class="st7" d="M288,346.45c-81.1,0-153.33-22.68-199.94-58.02c0,0.07,0,0.13,0,0.2c0.03,8.86,0.64,17.59,1.78,26.14
			c46.66,34.57,118.08,56.69,198.15,56.69s151.5-22.12,198.15-56.69c1.14-8.55,1.76-17.28,1.78-26.14c0-0.07,0-0.14,0-0.2
			C441.33,323.77,369.1,346.45,288,346.45z"/>
	</g>
	<path class="st8" d="M288,88.05C177.57,88.05,88.05,177.57,88.05,288c0,0.21,0.01,0.42,0.01,0.63c0.01,3.71,0.13,7.4,0.34,11.06
		c46.62,35.19,118.7,57.76,199.59,57.76s152.97-22.57,199.59-57.76c0.21-3.66,0.33-7.35,0.34-11.06c0-0.21,0.01-0.42,0.01-0.63
		C487.95,177.57,398.43,88.05,288,88.05z"/>
</g>
</svg>
